<?xml version="1.0" encoding="UTF-8"?>
<svg id="katman_1" xmlns="http://www.w3.org/2000/svg" version="1.1" viewBox="0 0 5490 1646.2">
  <!-- Generator: Adobe Illustrator 29.7.1, SVG Export Plug-In . SVG Version: 2.1.1 Build 8)  -->
  <defs>
    <style>
      .st0 {
        fill: #fff;
        fill-rule: evenodd;
      }
    </style>
  </defs>
  <polygon class="st0" points="37.3 21.3 37.3 1634 446.9 1634 446.9 1021.5 1191.7 1021.5 1191.7 1635.8 3525.7 1635.8 3525.7 626.8 2306.4 626.8 2306.4 415.8 5038.7 415.8 5038.7 629.8 3825.9 629.8 3825.9 1636.5 4238.6 1636.5 4238.6 1027.9 4815.2 1027.9 5011.3 1636.5 5447.5 1636.5 5243.8 1027.6 5457.9 1027.6 5457.9 21.4 1903.1 21.4 1903.1 1027.6 3117.6 1027.6 3117.6 1243.2 1596.8 1243.2 1596.8 21 1189.3 21 1189.3 627.5 441.5 627.5 441.5 21.3 37.3 21.3"/>
</svg>