<?xml version="1.0" encoding="UTF-8"?>
<svg id="katman_1" data-name="katman 1" xmlns="http://www.w3.org/2000/svg" viewBox="0 0 258.43 37.94">
  <defs>
    <style>
      .cls-1 {
        fill: #fff;
      }
    </style>
  </defs>
  <polygon class="cls-1" points="94.85 21.03 83.95 4.53 79.14 4.53 79.14 28.56 83.95 28.56 83.95 12.09 94.85 28.56 99.66 28.56 99.66 4.53 94.85 4.53 94.85 21.03"/>
  <path class="cls-1" d="M116.26,10.42c-1.49-.81-3.15-1.22-4.98-1.22s-3.49.41-4.98,1.22c-1.49.81-2.66,1.96-3.52,3.45-.86,1.49-1.29,3.21-1.29,5.16s.42,3.67,1.26,5.16c.84,1.49,1.99,2.64,3.45,3.46,1.47.81,3.12,1.22,4.95,1.22s3.54-.41,5.04-1.22c1.5-.81,2.69-1.97,3.58-3.46.88-1.49,1.32-3.21,1.32-5.16s-.43-3.67-1.29-5.16c-.86-1.49-2.03-2.64-3.52-3.45M115.44,22.13c-.46.85-1.07,1.48-1.84,1.91-.77.42-1.59.64-2.46.64-1.38,0-2.51-.49-3.42-1.46-.91-.97-1.36-2.37-1.36-4.18s.46-3.2,1.39-4.18c.93-.97,2.08-1.46,3.45-1.46s2.54.49,3.49,1.46c.95.97,1.43,2.37,1.43,4.18,0,1.21-.23,2.25-.69,3.09"/>
  <polygon class="cls-1" points="135.65 9.51 130.84 24.12 126.03 9.51 120.87 9.51 127.88 28.56 133.72 28.56 140.77 9.51 135.65 9.51"/>
  <path class="cls-1" d="M155.52,12.23c-.64-.87-1.49-1.59-2.56-2.17-1.07-.57-2.31-.86-3.73-.86-1.63,0-3.1.4-4.42,1.2-1.32.8-2.36,1.95-3.13,3.44-.77,1.49-1.15,3.2-1.15,5.12s.38,3.67,1.15,5.17c.77,1.5,1.81,2.66,3.13,3.49,1.32.82,2.78,1.24,4.38,1.24,1.42,0,2.68-.29,3.76-.88,1.09-.58,1.94-1.32,2.56-2.22v2.79h4.85V9.51h-4.85v2.72ZM154.83,22.04c-.46.84-1.08,1.48-1.86,1.93-.78.45-1.61.67-2.51.67s-1.69-.23-2.46-.69c-.77-.46-1.39-1.12-1.86-1.98-.47-.86-.7-1.86-.7-3.01s.23-2.14.7-2.97c.47-.84,1.08-1.47,1.84-1.91.76-.44,1.58-.65,2.47-.65s1.73.22,2.51.67c.78.45,1.4,1.09,1.86,1.92.46.84.69,1.84.69,3.01s-.23,2.17-.69,3.01"/>
  <path class="cls-1" d="M177.1,12.23c-.62-.89-1.47-1.62-2.54-2.18-1.08-.56-2.33-.84-3.75-.84-1.63,0-3.1.4-4.42,1.2-1.32.8-2.36,1.95-3.13,3.44-.77,1.49-1.15,3.2-1.15,5.12s.38,3.67,1.15,5.17c.77,1.5,1.82,2.66,3.14,3.49,1.33.82,2.8,1.24,4.4,1.24,1.4,0,2.64-.3,3.73-.89,1.09-.6,1.94-1.34,2.56-2.23v2.96c0,1.7-.43,2.96-1.31,3.8-.87.84-2.01,1.25-3.4,1.25-1.19,0-2.21-.26-3.04-.77-.84-.52-1.38-1.21-1.63-2.08h-4.78c.23,2.18,1.21,3.9,2.94,5.16s3.95,1.89,6.65,1.89c2.02,0,3.73-.41,5.16-1.22,1.42-.81,2.49-1.91,3.2-3.3.71-1.39,1.07-2.96,1.07-4.73V9.51h-4.85v2.72ZM176.42,22.04c-.46.84-1.08,1.48-1.86,1.93-.78.45-1.61.67-2.51.67s-1.69-.23-2.46-.69c-.77-.46-1.39-1.12-1.86-1.98-.47-.86-.7-1.86-.7-3.01s.23-2.14.7-2.97c.47-.84,1.08-1.47,1.84-1.91.76-.44,1.58-.65,2.47-.65s1.73.22,2.51.67c.78.45,1.4,1.09,1.86,1.92.46.84.69,1.84.69,3.01s-.23,2.17-.69,3.01"/>
  <path class="cls-1" d="M189.75,12.47v-2.96h-4.81v19.04h4.81v-9.49c0-1.76.38-3,1.15-3.71.77-.71,1.91-1.07,3.42-1.07h1.27v-5.05c-1.28,0-2.42.29-3.42.86-1,.57-1.8,1.36-2.42,2.37"/>
  <path class="cls-1" d="M210.86,12.23c-.64-.87-1.49-1.59-2.56-2.17s-2.31-.86-3.73-.86c-1.63,0-3.1.4-4.42,1.2s-2.36,1.95-3.13,3.44c-.77,1.49-1.15,3.2-1.15,5.12s.38,3.67,1.15,5.17,1.81,2.66,3.13,3.49c1.32.82,2.78,1.24,4.38,1.24,1.42,0,2.68-.29,3.76-.88,1.09-.58,1.94-1.32,2.56-2.22v2.79h4.85V9.51h-4.85v2.72ZM210.17,22.04c-.46.84-1.08,1.48-1.86,1.93-.78.45-1.61.67-2.51.67s-1.69-.23-2.46-.69c-.77-.46-1.39-1.12-1.86-1.98-.47-.86-.7-1.86-.7-3.01s.23-2.14.7-2.97c.47-.84,1.08-1.47,1.84-1.91.76-.44,1.58-.65,2.47-.65s1.73.22,2.51.67c.78.45,1.4,1.09,1.86,1.92.46.84.69,1.84.69,3.01s-.23,2.17-.69,3.01"/>
  <path class="cls-1" d="M234.21,10.41c-1.32-.8-2.79-1.2-4.42-1.2-1.4,0-2.64.29-3.73.88-1.09.58-1.94,1.31-2.56,2.18v-2.75h-4.81v28.12h4.81v-11.79c.66.87,1.53,1.59,2.6,2.17,1.07.57,2.3.86,3.7.86,1.63,0,3.1-.41,4.42-1.24,1.32-.82,2.36-1.99,3.13-3.49.77-1.5,1.15-3.23,1.15-5.17s-.38-3.66-1.15-5.14c-.77-1.48-1.81-2.62-3.13-3.42M232.87,21.99c-.47.85-1.09,1.5-1.86,1.96-.77.46-1.6.69-2.49.69s-1.69-.22-2.46-.67c-.77-.45-1.39-1.09-1.86-1.94-.47-.85-.7-1.84-.7-2.99s.23-2.14.7-2.99,1.09-1.5,1.86-1.94c.77-.45,1.59-.67,2.46-.67s1.72.22,2.49.65c.77.44,1.39,1.07,1.86,1.91.47.84.7,1.83.7,2.97s-.24,2.18-.7,3.02"/>
  <path class="cls-1" d="M257.49,12.97c-.63-1.23-1.51-2.15-2.63-2.78-1.12-.63-2.41-.94-3.85-.94-1.26,0-2.41.23-3.44.7-1.03.47-1.86,1.12-2.48,1.94V3.12h-4.81v25.44h4.81v-10.52c0-1.51.38-2.67,1.15-3.49.77-.81,1.82-1.22,3.15-1.22s2.34.41,3.09,1.22c.76.81,1.14,1.98,1.14,3.49v10.52h4.81v-11.17c0-1.72-.32-3.19-.94-4.42"/>
  <path class="cls-1" d="M54.77,5.87c-1-1-2.49-1.2-3.72-.51-1.22.69-1.82,2.07-1.49,3.44.34,1.4.52,2.83.52,4.27,0,9.79-7.96,17.76-17.73,17.76S14.6,22.86,14.6,13.07c0-1.46-1.18-2.64-2.64-2.64s-2.64,1.18-2.64,2.64c0,12.7,10.33,23.03,23.03,23.03s22.55-9.88,22.99-22.2l7.54,7.54c1.03,1.03,2.7,1.03,3.73,0,1.03-1.03,1.03-2.7,0-3.73l-11.83-11.84Z"/>
  <path class="cls-1" d="M16.68,7.23c1.26,1.26,1.96,2.94,1.96,4.73v1.12s0,0,0,0c0,7.21,5.87,13.07,13.09,13.07s13.07-5.87,13.07-13.08S38.93,0,31.72,0c-.57,0-1.15.04-1.77.12-1.44.19-2.46,1.52-2.26,2.96.19,1.44,1.53,2.45,2.96,2.26.39-.05.73-.08,1.06-.08,4.3,0,7.8,3.5,7.8,7.8s-3.5,7.81-7.8,7.81-7.81-3.51-7.81-7.81v-1.11c0-3.2-1.24-6.2-3.5-8.46C18.15,1.24,15.15,0,11.96,0,5.37,0,0,5.36,0,11.96v17.38c0,1.46,1.18,2.64,2.64,2.64s2.64-1.18,2.64-2.64V11.96c0-3.69,3-6.69,6.69-6.69,1.78,0,3.46.69,4.72,1.96"/>
</svg>